<?xml version="1.0" encoding="UTF-8"?> <svg xmlns="http://www.w3.org/2000/svg" id="_Слой_2" data-name="Слой 2" viewBox="0 0 419.95 104.93"><defs><style> .cls-1 { fill: #ed3200; } .cls-1, .cls-2 { stroke-width: 0px; } .cls-2 { fill: #243468; } </style></defs><g id="_Слой_2-2" data-name=" Слой 2"><g><path class="cls-1" d="m1.19,100.95v-9.06h8.22v9.06h-1.88v-7.26H3.08v7.26h-1.9s.01,0,0,0Zm10.85,3.97v-13.02h1.88v1.33c.17-.27.43-.53.74-.76.68-.5,1.47-.76,2.38-.76,1.16,0,2.15.46,3,1.36.84.9,1.26,2.03,1.26,3.37s-.41,2.47-1.26,3.37c-.84.9-1.84,1.36-3,1.36-.91,0-1.7-.26-2.38-.76-.31-.24-.56-.48-.74-.76v5.28h-1.88Zm2.68-6.39c.53.56,1.17.83,1.94.83s1.41-.27,1.94-.83.8-1.26.8-2.1-.27-1.54-.8-2.1-1.17-.83-1.94-.83-1.41.27-1.94.83-.8,1.26-.8,2.1.27,1.54.8,2.1Zm9.45,1.24c-.91-.91-1.37-2.03-1.37-3.35s.46-2.44,1.37-3.35,2.03-1.37,3.35-1.37,2.44.46,3.35,1.37,1.37,2.03,1.37,3.35-.46,2.44-1.37,3.35-2.03,1.37-3.35,1.37-2.44-.46-3.35-1.37Zm1.33-1.24c.54.54,1.21.83,2.03.83s1.48-.27,2.03-.83c.54-.54.81-1.26.81-2.11s-.27-1.55-.81-2.11c-.54-.54-1.21-.83-2.03-.83s-1.48.27-2.03.83c-.54.54-.81,1.26-.81,2.11s.27,1.55.81,2.11Zm13.33,6.39v-3.68c-1.55-.16-2.78-.67-3.71-1.54-.93-.88-1.38-1.97-1.38-3.27s.47-2.38,1.38-3.27c.93-.88,2.15-1.4,3.71-1.55v-3.87h1.88v3.87c1.54.16,2.78.67,3.71,1.55.93.88,1.38,1.97,1.38,3.27s-.46,2.38-1.38,3.27-2.17,1.4-3.71,1.54v3.68h-1.88Zm0-5.48v-6.03c-.93.06-1.7.37-2.3.94s-.9,1.27-.9,2.08.3,1.5.9,2.08c.6.57,1.37.9,2.3.94h0Zm1.88-6.03v6.03c.93-.06,1.7-.37,2.3-.94.6-.58.91-1.27.91-2.08s-.3-1.5-.91-2.08c-.6-.58-1.37-.9-2.3-.94h0Zm14.07,4.72l1.13,1.33c-.24.31-.56.6-.94.86-.86.57-1.83.86-2.92.86-1.33,0-2.44-.46-3.35-1.37s-1.37-2.03-1.37-3.35.46-2.44,1.36-3.35c.9-.91,2-1.37,3.28-1.37s2.34.41,3.18,1.26,1.26,1.9,1.26,3.18c0,.11,0,.34-.06.68l-.04.27h-6.99c.11.64.43,1.18.94,1.61s1.14.66,1.88.66c.68,0,1.33-.2,1.93-.6.27-.17.51-.39.71-.63v-.03h0Zm-5.48-2.64h5.09c-.16-.64-.43-1.14-.86-1.51-.41-.37-.96-.56-1.61-.56-1.33,0-2.21.68-2.64,2.07h.02Zm15.86,2.54l1.33,1.23c-.27.34-.58.66-.98.94-.88.63-1.84.94-2.88.94-1.33,0-2.44-.46-3.35-1.37s-1.37-2.03-1.37-3.35.46-2.44,1.37-3.35,2.03-1.37,3.35-1.37c1.07,0,2.03.3,2.85.91.37.27.68.57.93.88l-1.33,1.23c-.17-.24-.39-.44-.63-.6-.58-.41-1.2-.63-1.83-.63-.81,0-1.48.27-2.03.83-.54.54-.81,1.26-.81,2.11s.27,1.55.81,2.11,1.21.83,2.03.83c.71,0,1.34-.23,1.87-.66.23-.17.46-.4.68-.66v-.03h0,0Zm9.63,0l1.33,1.23c-.27.34-.58.66-.98.94-.88.63-1.84.94-2.88.94-1.33,0-2.44-.46-3.35-1.37s-1.37-2.03-1.37-3.35.46-2.44,1.37-3.35,2.03-1.37,3.35-1.37c1.07,0,2.03.3,2.85.91.37.27.68.57.93.88l-1.33,1.23c-.17-.24-.39-.44-.63-.6-.58-.41-1.2-.63-1.83-.63-.8,0-1.48.27-2.03.83-.54.54-.81,1.26-.81,2.11s.27,1.55.81,2.11c.54.54,1.21.83,2.03.83.71,0,1.34-.23,1.87-.66.23-.17.46-.4.68-.66v-.03h0,0Zm3.11,2.92v-9.06h1.88v6.03l4.72-6.03h1.7v9.06h-1.88v-6.03l-4.72,6.03h-1.7Zm11.76-1.18c-.91-.91-1.37-2.03-1.37-3.35s.46-2.44,1.37-3.35,2.03-1.37,3.35-1.37,2.44.46,3.35,1.37,1.37,2.03,1.37,3.35-.46,2.44-1.37,3.35-2.03,1.37-3.35,1.37-2.44-.46-3.35-1.37Zm1.33-1.24c.54.54,1.21.83,2.01.83s1.48-.27,2.03-.83c.54-.54.81-1.26.81-2.11s-.27-1.55-.81-2.11c-.54-.54-1.21-.83-2.03-.83s-1.48.27-2.01.83c-.54.54-.81,1.26-.81,2.11s.27,1.55.81,2.11Zm8.81,2.42v-9.06h1.88v3.58h4.44v-3.58h1.88v9.06h-1.88v-3.78h-4.44v3.78h-1.88Zm16.13,0v-1.33c-.17.27-.41.51-.71.76-.68.5-1.41.76-2.21.76-.88,0-1.61-.26-2.17-.77-.57-.51-.84-1.14-.84-1.87s.23-1.37.71-1.87c.47-.5,1.11-.83,1.94-.97l3.3-.57c0-.48-.17-.9-.53-1.21-.36-.33-.8-.48-1.36-.48s-1.13.21-1.71.63c-.21.16-.43.36-.64.6l-1.23-1.23c.26-.33.56-.61.9-.86.8-.57,1.68-.86,2.68-.86,1.11,0,2.03.33,2.72.98s1.04,1.5,1.04,2.5v5.76h-1.88v.03h0,0Zm0-4.05v-.29l-2.64.47c-.94.17-1.41.57-1.41,1.23,0,.34.13.63.4.87s.64.36,1.11.36c.71,0,1.33-.26,1.81-.76s.74-1.13.74-1.88c0,0,0,0,0,0h0Zm3.11,4.05v-1.8l.23.06c.17.03.33.04.43.04.39,0,.7-.1.91-.31s.4-.67.56-1.38.23-1.73.23-3.02v-2.64h6.98v9.06h-1.88v-7.26h-3.21v.86c0,1.28-.07,2.37-.23,3.25s-.37,1.57-.66,2.04-.61.81-.97,1.01-.77.3-1.26.3c-.29,0-.56-.03-.81-.1-.09,0-.2-.04-.31-.1h0,0Zm11.98,0v-9.06h1.88v2.82h2.07c1.07,0,1.93.29,2.55.87.63.58.94,1.33.94,2.24s-.31,1.67-.94,2.25-1.48.87-2.55.87h-3.97.02,0Zm1.88-1.7h2.07c.51,0,.91-.13,1.18-.37.27-.26.41-.6.41-1.04s-.14-.78-.41-1.04-.67-.37-1.18-.37h-2.07v2.82Zm7.57,1.7v-9.06h1.88v3.58h4.44v-3.58h1.88v9.06h-1.88v-3.78h-4.44v3.78h-1.88Zm16.13,0v-1.33c-.17.27-.41.51-.71.76-.68.5-1.41.76-2.21.76-.88,0-1.61-.26-2.17-.77-.57-.51-.84-1.14-.84-1.87s.23-1.37.71-1.87c.47-.5,1.11-.83,1.94-.97l3.3-.57c0-.48-.17-.9-.53-1.21-.36-.33-.8-.48-1.36-.48s-1.13.21-1.71.63c-.21.16-.43.36-.64.6l-1.23-1.23c.26-.33.56-.61.9-.86.8-.57,1.68-.86,2.68-.86,1.11,0,2.03.33,2.72.98s1.04,1.5,1.04,2.5v5.76h-1.88v.03h0Zm0-4.05v-.29l-2.64.47c-.94.17-1.41.57-1.41,1.23,0,.34.13.63.4.87s.64.36,1.11.36c.71,0,1.33-.26,1.81-.76s.74-1.13.74-1.88h0Zm3.87,4.05l2.08-3.3c-.31-.13-.61-.33-.91-.58-.6-.57-.88-1.28-.88-2.15s.31-1.58.94-2.15,1.48-.86,2.55-.86h4.05v9.06h-1.88v-3.02h-1.98l-1.8,3.02h-2.17s0-.02,0-.02Zm3.78-4.72h2.17v-2.64h-2.17c-.51,0-.91.13-1.18.37-.27.24-.41.57-.41.96s.14.71.41.96c.27.24.67.37,1.18.37v-.02Zm10.65,4.72v-9.06h1.88v4.15l3.87-4.15h2.35l-3.49,3.68,3.78,5.38h-2.17l-2.82-4.05-1.51,1.61v2.45h-1.89,0Zm10.34-1.18c-.91-.91-1.37-2.03-1.37-3.35s.46-2.44,1.37-3.35,2.03-1.37,3.35-1.37,2.44.46,3.35,1.37,1.37,2.03,1.37,3.35-.46,2.44-1.37,3.35c-.91.91-2.03,1.37-3.35,1.37s-2.44-.46-3.35-1.37Zm1.33-1.24c.54.54,1.21.83,2.01.83s1.48-.27,2.01-.83.81-1.26.81-2.11-.27-1.55-.81-2.11c-.54-.54-1.21-.83-2.01-.83s-1.48.27-2.01.83c-.54.54-.81,1.26-.81,2.11s.27,1.55.81,2.11Zm7.22,2.42v-1.8l.23.06c.17.03.33.04.44.04.39,0,.7-.1.91-.31s.4-.67.56-1.38.23-1.73.23-3.02v-2.64h6.98v9.06h-1.88v-7.26h-3.21v.86c0,1.28-.07,2.37-.23,3.25s-.37,1.57-.66,2.04-.61.81-.97,1.01-.77.3-1.26.3c-.29,0-.56-.03-.81-.1-.09,0-.2-.04-.31-.1h-.02Zm10.57,0v-1.8l.23.06c.17.03.33.04.44.04.39,0,.7-.1.91-.31s.4-.67.56-1.38.23-1.73.23-3.02v-2.64h6.98v9.06h-1.88v-7.26h-3.21v.86c0,1.28-.07,2.37-.23,3.25s-.37,1.57-.66,2.04-.61.81-.97,1.01-.77.3-1.26.3c-.29,0-.56-.03-.81-.1-.09,0-.2-.04-.31-.1h-.02Zm18.86-2.82l1.13,1.33c-.24.31-.56.6-.94.86-.86.57-1.83.86-2.92.86-1.33,0-2.44-.46-3.35-1.37s-1.37-2.03-1.37-3.35.44-2.44,1.36-3.35,2-1.37,3.28-1.37,2.34.41,3.18,1.26,1.26,1.9,1.26,3.18c0,.11-.03.34-.06.68l-.04.27h-6.98c.11.64.43,1.18.94,1.61s1.14.66,1.88.66c.68,0,1.33-.2,1.93-.6.27-.17.51-.39.71-.63v-.03h-.01,0Zm-5.48-2.64h5.09c-.16-.64-.44-1.14-.86-1.51-.41-.37-.96-.56-1.6-.56-1.33,0-2.21.68-2.64,2.07h.01Zm9.16,5.46v-9.06h1.88v4.15l3.87-4.15h2.35l-3.49,3.68,3.77,5.38h-2.17l-2.84-4.05-1.51,1.61v2.45h-1.88.03-.01,0Zm11.71,0v-7.26h-3.11v-1.8h8.12v1.8h-3.11v7.26h-1.9Zm7.3-1.18c-.91-.91-1.37-2.03-1.37-3.35s.46-2.44,1.37-3.35,2.03-1.37,3.35-1.37,2.44.46,3.35,1.37,1.37,2.03,1.37,3.35-.46,2.44-1.37,3.35c-.91.91-2.03,1.37-3.35,1.37s-2.44-.46-3.35-1.37Zm1.33-1.24c.54.54,1.21.83,2.01.83s1.48-.27,2.01-.83.81-1.26.81-2.11-.27-1.55-.81-2.11c-.54-.54-1.21-.83-2.01-.83s-1.48.27-2.01.83c-.54.54-.81,1.26-.81,2.11s.27,1.55.81,2.11Zm8.83,6.39v-13.02h1.88v1.33c.17-.27.43-.53.74-.76.68-.5,1.47-.76,2.38-.76,1.16,0,2.15.46,3,1.36s1.26,2.03,1.26,3.37-.41,2.47-1.26,3.37-1.84,1.36-3,1.36c-.91,0-1.7-.26-2.38-.76-.31-.24-.56-.48-.74-.76v5.28h-1.88Zm2.68-6.39c.53.56,1.17.83,1.94.83s1.41-.27,1.94-.83.8-1.26.8-2.1-.27-1.54-.8-2.1-1.17-.83-1.94-.83-1.41.27-1.94.83-.8,1.26-.8,2.1.27,1.54.8,2.1Zm15.34-.5l1.33,1.23c-.27.34-.6.66-.98.94-.88.63-1.84.94-2.88.94-1.33,0-2.44-.46-3.35-1.37s-1.37-2.03-1.37-3.35.46-2.44,1.37-3.35,2.03-1.37,3.35-1.37c1.07,0,2.01.3,2.85.91.37.27.68.57.93.88l-1.33,1.23c-.17-.24-.39-.44-.63-.6-.6-.41-1.2-.63-1.83-.63-.8,0-1.48.27-2.01.83-.54.54-.81,1.26-.81,2.11s.27,1.55.81,2.11c.54.54,1.21.83,2.01.83.71,0,1.34-.23,1.87-.66.23-.17.46-.4.68-.66v-.03h0Zm3.11,2.92v-9.06h1.88v4.15l3.87-4.15h2.35l-3.49,3.68,3.78,5.38h-2.17l-2.82-4.05-1.51,1.61v2.45h-1.89,0Zm14.82,0v-1.33c-.17.27-.41.51-.71.76-.68.5-1.41.76-2.21.76-.88,0-1.6-.26-2.17-.77s-.84-1.14-.84-1.87.24-1.37.71-1.87,1.11-.83,1.94-.97l3.3-.57c0-.48-.17-.9-.53-1.21s-.8-.48-1.36-.48-1.13.21-1.71.63c-.21.16-.43.36-.64.6l-1.23-1.23c.26-.33.56-.61.91-.86.8-.57,1.68-.86,2.68-.86,1.11,0,2.03.33,2.72.98s1.04,1.5,1.04,2.5v5.76h-1.88l-.03.03s.01,0,.01,0Zm0-4.05v-.29l-2.64.47c-.94.17-1.41.57-1.41,1.23,0,.34.13.63.4.87s.64.36,1.11.36c.71,0,1.33-.26,1.81-.76s.73-1.13.73-1.88h0Zm3.86,4.05l2.08-3.3c-.31-.13-.61-.33-.91-.58-.58-.57-.88-1.28-.88-2.15s.31-1.58.94-2.15,1.48-.86,2.55-.86h4.05v9.06h-1.88v-3.02h-1.98l-1.8,3.02h-2.17v-.02h0Zm3.78-4.72h2.17v-2.64h-2.17c-.51,0-.91.13-1.18.37-.27.24-.41.57-.41.96s.14.71.41.96.67.37,1.18.37v-.02Zm11.46,3.54c-.91-.91-1.37-2.03-1.37-3.35s.46-2.44,1.37-3.35,2.03-1.37,3.35-1.37,2.44.46,3.35,1.37,1.37,2.03,1.37,3.35-.46,2.44-1.37,3.35c-.91.91-2.03,1.37-3.35,1.37s-2.44-.46-3.35-1.37Zm1.33-1.24c.54.54,1.21.83,2.01.83s1.48-.27,2.01-.83.81-1.26.81-2.11-.27-1.55-.81-2.11c-.54-.54-1.21-.83-2.01-.83s-1.48.27-2.01.83c-.54.54-.81,1.26-.81,2.11s.27,1.55.81,2.11Zm8.82,6.39v-13.02h1.88v1.33c.17-.27.43-.53.74-.76.68-.5,1.47-.76,2.38-.76,1.16,0,2.15.46,3,1.36s1.26,2.03,1.26,3.37-.41,2.47-1.26,3.37-1.84,1.36-3,1.36c-.91,0-1.7-.26-2.38-.76-.31-.24-.56-.48-.74-.76v5.28h-1.88Zm2.68-6.39c.53.56,1.17.83,1.94.83s1.41-.27,1.94-.83.8-1.26.8-2.1-.27-1.54-.8-2.1-1.17-.83-1.94-.83-1.41.27-1.94.83-.8,1.26-.8,2.1.27,1.54.8,2.1Zm8.64,2.42v-9.06h6.42v1.8h-4.52v7.26h-1.9Zm13.4,0v-1.33c-.17.27-.41.51-.71.76-.68.5-1.41.76-2.21.76-.88,0-1.6-.26-2.17-.77s-.86-1.14-.86-1.87.24-1.37.71-1.87,1.11-.83,1.93-.97l3.31-.57c0-.48-.17-.9-.53-1.21-.36-.33-.81-.48-1.36-.48s-1.13.21-1.71.63c-.21.16-.43.36-.64.6l-1.23-1.23c.26-.33.56-.61.91-.86.8-.57,1.68-.86,2.68-.86,1.13,0,2.03.33,2.72.98s1.04,1.5,1.04,2.5v5.76h-1.88v.03Zm0-4.05v-.29l-2.64.47c-.94.17-1.41.57-1.41,1.23,0,.34.13.63.4.87s.64.36,1.1.36c.71,0,1.33-.26,1.81-.76s.74-1.13.74-1.88h0Zm4.53,4.05v-9.06h1.88v3.58h4.44v-3.58h1.88v9.06h-1.88v-3.78h-4.44v3.78h-1.88Zm10.85,0v-9.06h1.88v6.03l4.72-6.03h1.7v9.06h-1.88v-6.03l-4.72,6.03h-1.7Zm9.92-1.41l1.23-1.23c.17.2.4.39.66.57.57.37,1.17.57,1.8.57.5,0,.9-.11,1.18-.34.29-.23.43-.53.43-.88,0-.31-.14-.58-.43-.8-.29-.21-.67-.33-1.18-.33h-1.23v-1.7h1.13c.46,0,.8-.1,1.04-.29s.37-.41.37-.66c0-.3-.11-.56-.36-.74s-.6-.29-1.06-.29c-.58,0-1.11.13-1.58.4-.19.09-.39.21-.58.37l-1.23-1.23c.24-.23.53-.43.84-.63.8-.41,1.65-.63,2.55-.63,1.03,0,1.85.26,2.47.76.61.5.93,1.1.93,1.8,0,.64-.26,1.17-.76,1.57-.27.2-.51.34-.76.41.33.11.63.27.88.46.6.47.91,1.06.91,1.71,0,.74-.33,1.38-.98,1.93s-1.53.81-2.61.81-1.95-.27-2.75-.8c-.39-.26-.7-.53-.93-.81,0,0,.02,0,.02,0Zm14.62,1.41v-1.33c-.17.27-.41.51-.71.76-.68.5-1.41.76-2.21.76-.88,0-1.6-.26-2.17-.77s-.86-1.14-.86-1.87.24-1.37.71-1.87,1.11-.83,1.93-.97l3.31-.57c0-.48-.17-.9-.53-1.21-.36-.33-.81-.48-1.36-.48s-1.13.21-1.71.63c-.21.16-.43.36-.64.6l-1.23-1.23c.26-.33.56-.61.91-.86.8-.57,1.68-.86,2.68-.86,1.13,0,2.03.33,2.72.98s1.04,1.5,1.04,2.5v5.76h-1.88v.03Zm0-4.05v-.29l-2.64.47c-.94.17-1.41.57-1.41,1.23,0,.34.13.63.4.87s.64.36,1.1.36c.71,0,1.33-.26,1.81-.76s.74-1.13.74-1.88h0Zm4.52,4.05v-9.06h1.88v7.26h4.25v-7.26h1.88v7.26h1.33v4.05h-1.88v-2.27h-7.46s0,.02,0,.02Zm11.04,0v-9.06h1.88v6.03l4.72-6.03h1.7v9.06h-1.88v-6.03l-4.72,6.03h-1.7Zm10.3,0l2.08-3.3c-.31-.13-.61-.33-.91-.58-.6-.57-.88-1.28-.88-2.15s.31-1.58.94-2.15,1.48-.86,2.55-.86h4.05v9.06h-1.88v-3.02h-1.98l-1.8,3.02h-2.17v-.02h0Zm3.78-4.72h2.17v-2.64h-2.17c-.51,0-.91.13-1.18.37-.29.24-.41.57-.41.96s.14.71.41.96.67.37,1.18.37v-.02Z"></path><g><path class="cls-2" d="m90.58,75.59c-.71,0-1.22-.28-1.55-.83s-.54-1.41-.64-2.57c-.1-1.96-.31-3.94-.64-5.93s-.63-3.75-.91-5.29-.42-2.68-.42-3.44c0-.3.09-.57.26-.79s.49-.37.94-.42c3.78,0,6.81-1.36,9.11-4.08,2.29-2.72,3.97-6.88,5.02-12.47,1.06-5.59,1.59-12.72,1.59-21.38,0-1.51-.52-2.59-1.55-3.25-1.03-.65-2.73-1.26-5.1-1.81-1.11-.25-1.66-.78-1.66-1.59,0-.35.16-.63.49-.83s.67-.3,1.02-.3c1.01,0,2.19.03,3.55.08s2.71.11,4.04.19,2.51.11,3.51.11h17.45c1.01,0,2.17-.03,3.48-.08l3.97-.15c1.33-.05,2.56-.08,3.66-.08.45,0,.81.09,1.06.26.25.18.38.44.38.79,0,.5-.14.86-.42,1.06s-.69.38-1.25.53c-2.01.55-3.36,1.17-4.04,1.85s-1.02,1.8-1.02,3.36v33.18c0,.86.2,1.58.6,2.15.4.58.91,1.05,1.51,1.4.6.35,1.25.6,1.93.76s1.37.25,2.08.3c.45.05.76.2.91.45.15.25.23.53.23.83,0,.6-.14,1.67-.42,3.21s-.58,3.31-.91,5.33c-.33,2.01-.54,4.03-.64,6.04-.05,1.16-.25,2.01-.6,2.57-.35.55-.88.83-1.59.83-.65,0-1.08-.33-1.28-.98-.2-.66-.35-1.41-.45-2.27-.15-2.72-.43-4.98-.83-6.76-.4-1.79-1.1-3.15-2.08-4.08s-2.46-1.4-4.42-1.4h-25.31c-1.96,0-3.45.48-4.46,1.44s-1.7,2.34-2.08,4.16c-.38,1.81-.62,4.03-.72,6.65-.05.91-.2,1.67-.45,2.3-.25.63-.71.94-1.36.94h.01Zm9.6-18.74h15.64c1.41,0,2.35-.3,2.83-.91s.72-1.46.72-2.57V19.15c0-1.56-.29-2.77-.87-3.63s-1.8-1.28-3.66-1.28h-3.55c-1.71,0-2.82.37-3.32,1.1s-.76,1.7-.76,2.91c0,4.74-.18,9.06-.53,12.96-.35,3.9-.87,7.4-1.55,10.5s-1.51,5.78-2.49,8.05c-.98,2.27-2.1,4.16-3.36,5.67-.3.4-.38.74-.23,1.02s.53.42,1.13.42v-.02h0Zm42.76,3.48c-.6,0-1.06-.09-1.36-.26-.29-.16-.46-.46-.45-.79,0-.45.21-.74.64-.87.43-.13.92-.29,1.47-.49,1.16-.4,2.18-1.11,3.06-2.12s1.42-2.29,1.62-3.85c.3-2.32.62-5.18.94-8.58.33-3.4.67-7.04,1.02-10.92s.65-7.71.91-11.49c.05-.3.08-.68.08-1.13v-1.44c0-.91-.14-1.62-.42-2.15-.28-.53-.74-.97-1.4-1.32-.6-.4-1.26-.74-1.96-1.02-.71-.28-1.46-.52-2.27-.72-.6-.15-1.08-.35-1.44-.6-.35-.25-.53-.58-.53-.98,0-.45.2-.76.6-.91.4-.15.88-.23,1.44-.23.76,0,1.69.03,2.8.08s2.33.09,3.66.11c1.33.03,2.69.06,4.08.11,1.39.05,2.66.08,3.82.08.4,0,.78.14,1.13.42s.58.59.68.94c.35.96.68,1.88.98,2.76s.63,1.8.98,2.76l11.11,26.52c.1.2.24.32.42.34.18.03.31-.09.42-.34l10.81-25.08c.35-1.76.64-3.2.87-4.31s.44-1.99.64-2.64.6-.98,1.21-.98h3.25c2.12-.1,4.32-.26,6.61-.49s4.09-.34,5.4-.34c.5,0,.94.09,1.32.26.38.18.57.47.57.87,0,.45-.16.78-.49.98-.33.2-.74.38-1.25.53-.3.1-.65.24-1.06.42-.4.18-.76.34-1.06.49-1.31.6-2.28,1.3-2.91,2.08s-.89,2.03-.79,3.74c.1,3.63.23,6.8.38,9.52s.29,5.24.42,7.56.28,4.72.45,7.22c.18,2.49.37,5.4.57,8.73.1,1.31.64,2.35,1.62,3.14.98.78,2.28,1.37,3.89,1.78.5.15.93.33,1.28.53s.53.53.53.98c0,.35-.15.63-.45.83s-.68.3-1.13.3c-1.11,0-2.38-.04-3.82-.11-1.44-.08-2.85-.14-4.23-.19s-2.58-.08-3.59-.08-2.13.03-3.36.08-2.48.11-3.74.19c-1.26.08-2.47.11-3.63.11-.45,0-.86-.09-1.21-.26s-.53-.44-.53-.79c0-.45.18-.81.53-1.06s.78-.43,1.28-.53c1.86-.35,3.15-.87,3.85-1.55.71-.68,1.03-1.8.98-3.36-.15-3.12-.28-6.23-.38-9.33s-.19-6.14-.26-9.14c-.08-3-.19-5.9-.34-8.73,0-.35-.09-.52-.26-.49-.18.03-.34.22-.49.57l-14.43,34.3c-.25.7-.63,1.01-1.13.91s-.86-.35-1.06-.76c-2.47-5.84-5.05-11.61-7.74-17.3s-5.18-11.33-7.44-16.92c-.15-.45-.39-.62-.72-.49-.33.13-.52.47-.57,1.02-.15,2.52-.28,5.28-.38,8.27-.1,3-.15,6.02-.15,9.07v8.5c0,1.41.45,2.56,1.36,3.44.91.88,2.34,1.55,4.31,2,.5.1.98.26,1.44.49.45.23.68.57.68,1.02,0,.35-.2.63-.6.83s-.83.3-1.28.3c-1.36,0-2.42-.04-3.17-.11-.76-.08-1.44-.12-2.04-.15-.6-.03-1.44-.04-2.49-.04-1.11,0-2.24.03-3.4.08-1.16.05-2.17.1-3.02.15s-1.41.08-1.66.08l-.02-.05h0Zm68.91,0c-.35,0-.69-.09-1.02-.26s-.49-.44-.49-.79c0-.81.53-1.33,1.59-1.59,1.91-.4,3.21-.92,3.89-1.55s1.02-1.75,1.02-3.36V18.47c0-1.66-.3-2.82-.91-3.48-.6-.65-1.89-1.21-3.85-1.66-1.11-.25-1.66-.78-1.66-1.59,0-.35.16-.63.49-.83s.67-.3,1.02-.3c1.16,0,2.38.03,3.66.08s2.53.11,3.74.19,2.32.11,3.32.11,2.15-.03,3.44-.08c1.28-.05,2.59-.1,3.93-.15,1.33-.05,2.56-.08,3.66-.08.45,0,.79.09,1.02.26.23.18.34.44.34.79,0,.5-.14.86-.42,1.06s-.67.38-1.17.53c-2.07.55-3.41,1.18-4.04,1.89s-.94,1.81-.94,3.32v25.61c0,.71.08,1.08.23,1.13s.45-.15.91-.6l21.84-24.03c.5-.5.76-1.06.76-1.66v-.76c-.05-1.51-.42-2.59-1.1-3.25-.68-.65-1.98-1.21-3.89-1.66-1.11-.25-1.66-.78-1.66-1.59,0-.35.16-.63.49-.83s.67-.3,1.02-.3c1.16,0,2.38.03,3.66.08s2.56.11,3.82.19,2.39.11,3.4.11,2.13-.03,3.36-.08,2.52-.1,3.85-.15c1.33-.05,2.56-.08,3.66-.08.45,0,.79.09,1.02.26.23.18.34.44.34.79,0,.5-.14.86-.42,1.06s-.67.38-1.17.53c-2.07.55-3.38,1.18-3.93,1.89-.56.71-.83,1.81-.83,3.32v34.18c0,1.46.3,2.53.91,3.21s1.89,1.27,3.85,1.78c.55.15.97.33,1.25.53s.42.53.42.98c0,.35-.13.63-.38.83s-.6.3-1.06.3c-1.11,0-2.33-.04-3.66-.11-1.33-.08-2.64-.14-3.93-.19s-2.43-.08-3.44-.08-2.12.03-3.32.08-2.46.11-3.74.19-2.51.11-3.66.11c-.35,0-.69-.09-1.02-.26-.33-.18-.49-.44-.49-.79,0-.81.53-1.33,1.59-1.59,1.86-.4,3.17-.91,3.93-1.51s1.13-1.69,1.13-3.25v-26.07c0-.65-.23-.78-.68-.38l-22.06,24.33c-.35.35-.6.67-.76.94-.15.28-.23.64-.23,1.1,0,1.46.38,2.51,1.13,3.14.76.63,2.09,1.2,4,1.7.5.15.89.33,1.17.53s.42.53.42.98c0,.35-.11.63-.34.83s-.57.3-1.02.3c-1.11,0-2.34-.04-3.7-.11-1.36-.08-2.69-.14-4-.19s-2.47-.08-3.48-.08-2.13.03-3.36.08-2.49.11-3.78.19c-1.28.08-2.51.11-3.66.11h-.01,0Zm62.34,0c-.4,0-.76-.09-1.06-.26-.29-.16-.46-.46-.45-.79,0-.81.53-1.33,1.59-1.59,1.91-.4,3.24-.92,3.97-1.55s1.1-1.78,1.1-3.44V18.84c0-1.71-.3-2.96-.91-3.74-.6-.78-1.81-1.37-3.63-1.78-.65-.15-1.11-.37-1.36-.64-.25-.28-.38-.59-.38-.94,0-.3.15-.57.45-.79.3-.23.71-.34,1.21-.34,1.16,0,2.33.03,3.51.08,1.18.05,2.34.11,3.48.19,1.13.08,2.2.11,3.21.11,1.21,0,2.28-.06,3.21-.19.93-.13,1.96-.25,3.1-.38,1.13-.12,2.5-.19,4.12-.19,6.15,0,11.02,1.3,14.62,3.89,3.6,2.6,5.4,6.16,5.4,10.69,0,3.17-.67,6.1-2,8.76-1.33,2.67-3.35,4.82-6.04,6.46s-6.11,2.46-10.24,2.46c-1.31,0-2.3-.2-2.98-.6-.68-.4-1.02-.88-1.02-1.44,0-.35.16-.64.49-.87s.62-.34.87-.34c.55,0,1.03.06,1.44.19.4.13.96.19,1.66.19,2.12,0,3.72-1.18,4.8-3.55s1.62-5.49,1.62-9.37c0-4.63-.76-7.98-2.27-10.05-1.51-2.07-3.63-3.1-6.35-3.1-1.41,0-2.48.31-3.21.94-.73.63-1.1,1.6-1.1,2.91l-.08,35.13c0,1.61.43,2.76,1.28,3.44.86.68,2.34,1.25,4.46,1.7.55.1.97.26,1.25.49.28.23.42.57.42,1.02,0,.35-.13.63-.38.83s-.6.3-1.06.3c-1.11,0-2.38-.04-3.82-.11-1.44-.08-2.86-.14-4.27-.19s-2.62-.08-3.63-.08-2.22.03-3.48.08-2.56.11-3.89.19-2.56.11-3.66.11v.02h.01Zm38.53.15c-.55,0-1.02-.09-1.4-.26-.38-.18-.57-.49-.57-.94,0-.5.16-.87.49-1.1s.77-.42,1.32-.57c1.46-.4,2.73-1.03,3.82-1.89,1.08-.86,1.9-1.91,2.46-3.17,1.26-2.82,2.44-5.6,3.55-8.35,1.11-2.74,2.19-5.46,3.25-8.16,1.06-2.69,2.12-5.44,3.17-8.24,1.06-2.8,2.12-5.63,3.17-8.5.76-2.06,1.23-3.56,1.44-4.5.2-.93.35-1.47.45-1.62.91-.25,1.76-.48,2.57-.68s1.66-.48,2.57-.83,1.67-.8,2.3-1.36c.63-.55,1.1-.98,1.4-1.28.2-.15.4-.24.6-.26s.4.14.6.49c.15.3.29.62.42.94.13.33.24.69.34,1.1,1.06,3.38,2.14,6.81,3.25,10.31s2.23,6.99,3.36,10.47c1.13,3.48,2.25,6.91,3.36,10.31,1.11,3.4,2.19,6.71,3.25,9.94.3,1.01.77,1.86,1.4,2.57s1.35,1.26,2.15,1.66c.81.4,1.71.76,2.72,1.06.55.15.99.34,1.32.57.33.23.49.57.49,1.02,0,.35-.15.63-.45.83-.3.2-.65.3-1.06.3-1.01,0-2.25-.04-3.74-.11-1.49-.08-2.98-.14-4.5-.19s-2.85-.08-4-.08c-.96,0-2.13.03-3.51.08l-4.19.15c-1.41.05-2.62.08-3.63.08-.45,0-.84-.09-1.17-.26-.33-.18-.49-.44-.49-.79,0-.45.18-.8.53-1.06.35-.25.78-.43,1.28-.53,1.86-.4,3.22-.93,4.08-1.59.86-.65,1.13-1.64.83-2.95-.2-.96-.45-1.96-.76-3.02-.3-1.06-.59-2.13-.87-3.21s-.57-2.13-.87-3.14c-.1-.4-.23-.71-.38-.91s-.45-.3-.91-.3h-13.37c-.35,0-.63.1-.83.3-.2.2-.35.53-.45.98-.2.71-.43,1.41-.68,2.12-.25.71-.49,1.41-.72,2.12s-.44,1.41-.64,2.12-.4,1.39-.6,2.04c-.35,1.51-.2,2.67.45,3.48s2.07,1.46,4.23,1.96c1.21.25,1.81.78,1.81,1.59,0,.35-.14.62-.42.79-.28.18-.72.26-1.32.26-1.46,0-2.82-.04-4.08-.11s-2.64-.11-4.16-.11-2.95.08-4.31.23-2.82.23-4.38.23l.03-.03h0Zm18.21-22.06h9.82c.76,0,1.13-.18,1.13-.53,0-.15-.01-.28-.04-.38-.03-.1-.06-.23-.11-.38l-5.06-17.08c-.15-.55-.3-.83-.45-.83-.1,0-.28.28-.53.83l-5.97,17.08c-.1.2-.15.4-.15.6,0,.25.14.43.42.53s.59.15.94.15h0Zm41.86,22.96c-2.12,0-3.7-.53-4.76-1.59s-1.59-2.29-1.59-3.7c0-1.11.2-2.06.6-2.87.4-.81,1.03-1.21,1.89-1.21,1.46.35,2.78.6,3.97.76,1.18.15,2.23.23,3.14.23,1.26,0,2.42-.59,3.48-1.78,1.06-1.18,1.98-3.11,2.76-5.78s1.4-6.22,1.85-10.65.68-9.9.68-16.4c0-1.51-.5-2.59-1.51-3.25-1.01-.65-2.69-1.26-5.06-1.81-1.11-.25-1.66-.78-1.66-1.59,0-.35.16-.63.49-.83s.67-.3,1.02-.3c1.01,0,2.19.03,3.55.08s2.71.11,4.04.19,2.51.11,3.51.11h18.21c1.01,0,2.15-.03,3.44-.08,1.28-.05,2.59-.1,3.93-.15,1.33-.05,2.56-.08,3.66-.08.45,0,.8.09,1.06.26.25.18.38.44.38.79,0,.5-.14.86-.42,1.06s-.69.38-1.25.53c-2.01.55-3.35,1.17-4,1.85s-.98,1.8-.98,3.36v34.16c0,1.46.37,2.53,1.1,3.21s2.08,1.27,4.04,1.78c.5.15.89.33,1.17.53s.42.53.42.98c0,.35-.11.63-.34.83s-.57.3-1.02.3c-1.11,0-2.34-.04-3.7-.11-1.36-.08-2.69-.14-4-.19s-2.47-.08-3.48-.08-2.22.03-3.48.08-2.56.11-3.89.19-2.58.11-3.74.11c-.35,0-.68-.09-.98-.26-.29-.16-.46-.46-.45-.79,0-.81.53-1.33,1.59-1.59,1.91-.4,3.25-.93,4-1.59.76-.65,1.13-1.76,1.13-3.32V19.98c0-1.56-.29-2.77-.87-3.63s-1.8-1.28-3.66-1.28h-3.93c-1.46,0-2.47.31-3.02.94s-.83,1.52-.83,2.68c0,7.2-.38,13.3-1.13,18.28-.76,4.99-1.74,9.09-2.95,12.32-1.21,3.22-2.54,5.7-4,7.44-1.46,1.74-2.93,2.95-4.42,3.63s-2.81,1.02-3.97,1.02c0,0-.02,0-.02,0Z"></path><path class="cls-1" d="m30.56,4.15l-2.86,7.42-5.54,14.36-5.93,15.38-5.76,14.94-4.78,12.4-5.69,14.74h18.92l2.67-7.13,4.42-11.79h31.92l7.09,18.92h354.92v-3.54H82.58L53.39,4.15h366.55V0H31.91m0,48.5l9.81-27.19h.47l9.81,27.19h-20.1.01Z"></path><polygon class="cls-2" points="419.94 4.15 53.39 4.15 51.84 0 419.94 0 419.94 4.15"></polygon><polygon class="cls-2" points="419.94 83.39 83.87 83.39 82.58 79.85 419.94 79.85 419.94 83.39"></polygon></g></g></g></svg> 